{"title":"All Good Things 2010 720p BRRip.x264.Feel-Free","uid":6036983,"size":2048958339,"categoryP":"video","categoryS":"hd___movies","magnet":"?xt=urn:btih:9a06c44508a17504a2fd707326d74c3aa3f07677&amp;dn=All+Good+Things+2010+720p+BRRip.x264.Feel-Free&amp;tr=udp%3A%2F%2Ftracker.openbittorrent.com%3A80&amp;tr=udp%3A%2F%2Fopen.demonii.com%3A1337&amp;tr=udp%3A%2F%2Ftracker.coppersurfer.tk%3A6969&amp;tr=udp%3A%2F%2Fexodus.desync.com%3A6969","seeders":0,"leechers":1,"uploader":"neon","files":-1,"time":1292265776,"description":"Genre:Drama | Mystery | Thriller\nLanguage:English\n &lt;a href=&quot; http://www.imdb.com/title/tt1175709/&quot; rel=&quot;nofollow&quot; target=&quot;_NEW&quot;&gt; http://www.imdb.com/title/tt1175709/&lt;/a&gt;\nSource:720P Bluray X264 Hive-CM8\n\n\nFormat : Matroska\nFile size : 1.90 GiB\nDuration : 1h 40mn\nOverall bit rate : 2 701 Kbps\n\n\nVideo\nFormat settings, CABAC : Yes\nFormat settings, ReFrames : 4 frames\nCodec ID : V_MPEG4/ISO/AVC\nDuration : 1h 40mn\nBit rate : 2 300 Kbps\nWidth : 1 280 pixels\nHeight : 720 pixels\nDisplay aspect ratio : 16:9\nFrame rate mode : Variable\nFrame rate : 23.976 fps\nColor space : YUV\nChroma subsampling : 4:2:0\nBit depth : 8 bits\nScan type : Progressive\nBits/(Pixel*Frame) : 0.104\nStream size : 1.59 GiB (84%)\nWriting library : x264\n\nAudio\nID : 2\nFormat : AC-3\nFormat/Info : Audio Coding 3\nMode extension : CM (complete main)\nCodec ID : A_AC3\nDuration : 1h 40mn\nBit rate mode : Constant\nBit rate : 384 Kbps\nChannel(s) : 6 channels\nChannel positions : Front: L C R, Side: L R, LFE\nSampling rate : 48.0 KHz\nBit depth : 16 bits\nVideo delay : -1mn 5s\nStream size : 277 MiB (14%)\nLanguage : English\n\n\nPlot:\nAll Good Things is a love story and murder mystery based on the most notorious unsolved murder case in New York\n &lt;a href=&quot;\nhttp://rapidhdd.com/images/543629vlcsnap-2010-12-13-18h13m27s159.png&quot; rel=&quot;nofollow&quot; target=&quot;_NEW&quot;&gt;\nhttp://rapidhdd.com/images/543629vlcsnap-2010-12-13-18h13m27s159.png&lt;/a&gt; &lt;a href=&quot;\nhttp://www.rapidhdd.com/images/311799vlcsnap-2010-12-13-18h13m38s8.png&quot; rel=&quot;nofollow&quot; target=&quot;_NEW&quot;&gt;\nhttp://www.rapidhdd.com/images/311799vlcsnap-2010-12-13-18h13m38s8.png&lt;/a&gt; &lt;a href=&quot;\nhttp://www.rapidhdd.com/images/214373vlcsnap-2010-12-13-18h14m15s124.png&quot; rel=&quot;nofollow&quot; target=&quot;_NEW&quot;&gt;\nhttp://www.rapidhdd.com/images/214373vlcsnap-2010-12-13-18h14m15s124.png&lt;/a&gt; &lt;a href=&quot;\nhttp://www.rapidhdd.com/images/993974vlcsnap-2010-12-13-18h14m37s85.png&quot; rel=&quot;nofollow&quot; target=&quot;_NEW&quot;&gt;\nhttp://www.rapidhdd.com/images/993974vlcsnap-2010-12-13-18h14m37s85.png&lt;/a&gt;","torrent":{"xt":"urn:btih:9a06c44508a17504a2fd707326d74c3aa3f07677","amp;dn":"All+Good+Things+2010+720p+BRRip.x264.Feel-Free","amp;tr":["udp%3A%2F%2Ftracker.openbittorrent.com%3A80","udp%3A%2F%2Fopen.demonii.com%3A1337","udp%3A%2F%2Ftracker.coppersurfer.tk%3A6969","udp%3A%2F%2Fexodus.desync.com%3A6969"],"infoHash":"9a06c44508a17504a2fd707326d74c3aa3f07677","infoHashBuffer":{"type":"Buffer","data":[154,6,196,69,8,161,117,4,162,253,112,115,38,215,76,58,163,240,118,119]},"announce":[],"urlList":[]}}